<?xml version="1.0" standalone="no"?>
<!DOCTYPE svg PUBLIC "-//W3C//DTD SVG 20010904//EN"
 "http://www.w3.org/TR/2001/REC-SVG-20010904/DTD/svg10.dtd">
<svg version="1.0" xmlns="http://www.w3.org/2000/svg"
 width="500.000000pt" height="500.000000pt" viewBox="0 0 500.000000 500.000000"
 preserveAspectRatio="xMidYMid meet">
<metadata>
Created by potrace 1.14, written by Peter Selinger 2001-2017
</metadata>
<g transform="translate(0.000000,500.000000) scale(0.100000,-0.100000)"
fill="#000000" stroke="none">
<path d="M550 4065 l0 -145 90 0 90 0 0 -720 0 -720 -90 0 -90 0 0 -92 c-1
-51 -3 -119 -7 -150 l-5 -58 521 0 c588 0 602 1 750 72 65 31 100 57 155 112
114 114 166 244 166 416 0 151 -46 266 -144 364 -34 34 -78 70 -99 81 -20 11
-37 24 -37 30 0 5 16 21 35 34 85 57 159 190 174 309 34 272 -112 493 -384
583 -69 23 -77 24 -597 27 l-528 3 0 -146z m1008 -194 c133 -60 190 -214 128
-346 -26 -57 -70 -98 -136 -129 -40 -18 -69 -21 -262 -24 l-218 -4 0 267 0
266 218 -3 c204 -3 220 -4 270 -27z m54 -819 c111 -54 160 -133 160 -257 -1
-126 -58 -217 -171 -269 -42 -19 -66 -21 -288 -24 l-243 -3 0 296 0 297 238
-4 237 -3 67 -33z"/>
<path d="M2628 3590 c-109 -33 -170 -134 -146 -245 14 -66 82 -137 148 -155
132 -36 263 63 263 199 0 59 -24 121 -60 153 -51 47 -141 68 -205 48z"/>
<path d="M2591 2534 c-158 -80 -157 -296 3 -370 119 -56 249 -4 291 115 22 62
19 100 -12 162 -38 73 -90 109 -169 116 -50 4 -67 1 -113 -23z"/>
<path d="M42 1453 c-12 -2 -20 -9 -17 -14 3 -5 -1 -6 -9 -3 -14 5 -16 -73 -16
-715 l0 -721 2500 0 2500 0 0 718 c0 711 0 718 -20 718 -11 0 -20 -3 -20 -7 0
-4 -16 -3 -36 3 -20 5 -42 7 -50 4 -7 -3 -16 -1 -19 4 -3 6 -16 5 -32 -1 -14
-5 -48 -6 -75 -3 -38 5 -52 3 -59 -7 -6 -10 -11 -11 -16 -3 -10 14 -63 27 -63
15 0 -7 -26 -8 -37 -1 -8 4 -90 1 -103 -4 -8 -3 -37 -2 -63 3 -26 4 -47 5 -47
0 0 -12 -93 -3 -119 11 -18 9 -21 8 -21 -10 0 -20 -1 -20 -16 -5 -15 15 -18
15 -41 -1 -14 -9 -23 -12 -20 -7 3 4 -6 14 -20 20 -14 7 -23 9 -19 5 4 -3 -8
-12 -26 -18 -27 -10 -36 -9 -52 5 -11 9 -16 10 -12 4 4 -8 1 -13 -9 -13 -9 0
-14 3 -12 8 3 4 -17 8 -44 9 -28 1 -47 -3 -44 -8 4 -5 -3 -9 -14 -9 -11 0 -23
5 -26 10 -5 8 -11 7 -21 -1 -11 -9 -17 -9 -29 1 -9 8 -15 8 -15 2 0 -6 -20 -9
-52 -7 -29 2 -58 -1 -64 -6 -8 -7 -14 -7 -18 0 -4 6 -13 8 -21 4 -9 -3 -15 1
-15 8 0 12 -2 12 -9 0 -5 -7 -11 -9 -14 -4 -8 13 -76 7 -94 -8 -11 -10 -13
-10 -11 1 2 11 -9 14 -47 13 -27 -1 -62 -3 -76 -6 -14 -3 -44 -2 -67 3 -27 5
-43 3 -46 -4 -3 -7 -7 -8 -13 -1 -12 14 -53 12 -62 -4 -7 -10 -9 -11 -13 -1
-2 7 -21 14 -41 15 -20 2 -35 -1 -32 -5 3 -5 -10 -6 -30 -3 -21 3 -41 1 -50
-7 -13 -11 -18 -8 -17 10 0 3 -40 5 -89 5 -49 0 -89 -4 -89 -9 0 -5 -6 -3 -14
3 -8 7 -17 8 -20 3 -2 -4 -33 -7 -68 -6 -74 2 -90 6 -100 19 -5 6 -8 5 -8 -2
0 -7 -11 -13 -25 -13 -14 0 -25 -5 -25 -10 0 -6 -13 -9 -29 -8 -16 1 -27 6
-24 10 2 5 -8 6 -23 2 -18 -5 -25 -3 -20 4 4 6 -2 8 -14 5 -11 -3 -20 -9 -20
-14 0 -5 -7 -6 -15 -3 -8 4 -12 10 -10 15 3 4 -18 6 -47 3 -29 -4 -57 -6 -63
-5 -61 4 -207 6 -211 1 -3 -2 -39 -5 -80 -5 -59 0 -74 3 -75 15 0 10 -2 11 -6
3 -2 -7 -11 -13 -19 -13 -8 0 -14 -6 -14 -12 0 -7 -5 -5 -11 5 -11 18 -39 24
-39 7 0 -5 -7 -10 -15 -10 -8 0 -15 7 -15 16 0 15 -2 15 -24 0 -14 -9 -27 -12
-30 -7 -7 11 -56 1 -56 -11 0 -6 -7 -5 -15 2 -12 10 -15 10 -15 0 0 -9 -3 -10
-14 -1 -15 12 -82 18 -92 8 -4 -3 -13 1 -22 9 -11 12 -17 13 -23 3 -4 -7 -23
-11 -46 -10 -21 1 -45 2 -53 1 -8 0 -39 -1 -67 -2 -29 0 -53 -5 -53 -10 0 -6
-6 -5 -15 2 -8 7 -15 9 -15 5 0 -4 -7 -2 -15 5 -12 10 -15 9 -16 -6 0 -11 -3
-14 -6 -6 -2 6 -11 12 -19 12 -8 0 -14 5 -14 11 0 7 -7 8 -17 4 -10 -4 -39 -9
-65 -11 -27 -2 -56 -8 -67 -13 -15 -8 -20 -7 -26 7 -6 16 -7 16 -21 -2 -8 -11
-14 -14 -14 -8 0 9 -5 10 -18 3 -13 -7 -22 -7 -30 1 -10 10 -186 16 -222 7 -9
-3 -14 2 -12 11 3 12 0 11 -15 -2 -14 -13 -22 -14 -37 -6 -12 7 -17 7 -12 0 3
-5 -1 -12 -8 -15 -10 -4 -14 0 -11 13 3 13 -1 17 -11 13 -7 -3 -12 -8 -9 -12
2 -4 -2 -8 -10 -8 -8 0 -12 4 -10 8 8 11 -22 18 -32 8 -11 -11 -166 -14 -207
-3 -17 4 -26 2 -26 -6 0 -7 -8 -9 -19 -5 -39 12 -61 14 -61 4 0 -6 -8 -5 -21
2 -19 10 -20 9 -14 -12 7 -22 7 -22 -9 -6 -10 9 -15 21 -11 27 3 5 0 7 -9 4
-9 -3 -12 -13 -9 -22 5 -14 3 -15 -7 -5 -9 9 -19 9 -33 2 -11 -6 -17 -7 -14
-2 3 5 -4 15 -16 22 -18 11 -20 11 -9 0 20 -21 14 -29 -13 -17 -13 6 -22 15
-19 19 3 5 4 8 2 8 -2 -1 -13 -4 -26 -6z"/>
<path d="M2705 1450 c-3 -5 -1 -10 4 -10 6 0 11 5 11 10 0 6 -2 10 -4 10 -3 0
-8 -4 -11 -10z"/>
<path d="M2545 1440 c3 -5 8 -10 11 -10 2 0 4 5 4 10 0 6 -5 10 -11 10 -5 0
-7 -4 -4 -10z"/>
</g>
</svg>
