<?xml version="1.0" standalone="no"?>
<!DOCTYPE svg PUBLIC "-//W3C//DTD SVG 20010904//EN"
 "http://www.w3.org/TR/2001/REC-SVG-20010904/DTD/svg10.dtd">
<svg version="1.0" xmlns="http://www.w3.org/2000/svg"
 width="500.000000pt" height="500.000000pt" viewBox="0 0 500.000000 500.000000"
 preserveAspectRatio="xMidYMid meet">
<metadata>
Created by potrace 1.14, written by Peter Selinger 2001-2017
</metadata>
<g transform="translate(0.000000,500.000000) scale(0.100000,-0.100000)"
fill="#000000" stroke="none">
<path d="M550 4065 l0 -145 90 0 90 0 0 -725 0 -725 -90 0 -90 0 0 -145 0
-145 504 0 c582 0 606 2 753 75 196 96 307 264 320 482 13 204 -62 366 -216
468 -62 41 -72 58 -45 73 35 20 112 105 139 153 39 73 55 141 55 245 0 250
-146 435 -406 511 -52 15 -121 18 -581 21 l-523 3 0 -146z m1010 -191 c97 -45
149 -128 150 -234 0 -113 -53 -195 -155 -242 -46 -21 -66 -23 -267 -26 l-218
-4 0 267 0 266 223 -3 c200 -3 227 -6 267 -24z m48 -818 c110 -51 166 -139
166 -261 0 -90 -22 -144 -83 -206 -85 -84 -122 -93 -396 -94 l-220 0 -3 298
-2 299 237 -4 238 -3 63 -29z"/>
<path d="M2566 2550 c-72 -23 -131 -87 -147 -161 -39 -172 163 -309 316 -214
70 43 98 99 93 186 -4 79 -35 133 -98 168 -44 25 -121 35 -164 21z"/>
<path d="M212 1009 c2 -10 -6 -14 -27 -14 -16 0 -36 -5 -44 -9 -9 -6 -12 -5
-8 1 4 6 0 14 -9 17 -23 9 -31 7 -16 -3 11 -6 9 -9 -6 -13 -16 -5 -19 -2 -14
11 5 13 3 14 -9 5 -8 -6 -22 -10 -31 -9 -10 2 -21 -1 -24 -7 -4 -6 -10 -5 -15
3 -5 8 -9 -204 -9 -488 l0 -503 2500 0 2500 0 0 501 c0 306 -4 498 -9 494 -5
-3 -12 -1 -15 4 -3 4 -23 5 -45 1 -25 -4 -44 -3 -52 4 -8 8 -10 8 -6 0 8 -13
-60 -18 -68 -4 -3 5 -20 3 -40 -6 -39 -16 -48 -17 -42 -6 3 4 -21 7 -54 7 -32
-1 -59 3 -59 7 0 4 -7 8 -15 8 -8 0 -15 -4 -15 -8 0 -5 -20 -6 -45 -2 -25 4
-47 5 -49 3 -8 -8 -256 -8 -256 -1 0 5 -5 8 -11 8 -5 0 -8 -4 -4 -9 3 -6 -6
-6 -25 -1 -18 5 -32 5 -36 -1 -3 -5 -10 -6 -16 -3 -19 12 -172 8 -176 -4 -2
-8 -9 -7 -19 4 -12 12 -18 13 -24 3 -6 -10 -11 -10 -25 2 -13 10 -16 11 -10 1
6 -11 0 -13 -30 -11 -22 1 -45 7 -52 13 -8 6 -16 6 -20 0 -11 -15 -35 -16 -43
-2 -7 10 -9 10 -9 0 0 -10 -5 -10 -20 -2 -11 6 -20 7 -20 3 0 -4 -16 -8 -35
-9 -19 0 -35 3 -35 6 0 4 -10 6 -22 4 -67 -11 -78 -12 -83 -4 -7 11 -45 0 -45
-13 0 -6 -7 -4 -16 5 -15 15 -19 15 -41 1 -22 -15 -23 -14 -17 3 5 18 5 18
-10 0 -16 -20 -16 -20 -16 0 0 10 -4 15 -8 9 -10 -15 -46 -19 -37 -5 6 9 2 9
-14 1 -16 -9 -21 -9 -21 1 0 6 -6 4 -13 -6 -13 -17 -14 -17 -30 -1 -9 9 -17
12 -17 7 0 -6 -11 -9 -25 -8 -14 0 -25 5 -25 11 0 5 -5 4 -11 -2 -7 -7 -21 -8
-42 -2 -17 5 -33 5 -36 1 -8 -9 -34 -9 -41 0 -3 4 -18 1 -32 -6 -19 -10 -29
-11 -37 -3 -8 8 -11 8 -11 -1 0 -6 -7 -9 -15 -6 -8 4 -12 10 -9 16 3 5 -3 4
-15 -4 -17 -10 -25 -10 -41 -1 -12 8 -21 9 -25 3 -4 -6 -11 -8 -16 -4 -16 10
-81 15 -75 6 3 -5 -17 -7 -44 -5 -30 2 -50 -1 -50 -7 0 -5 -5 -10 -11 -10 -5
0 -7 5 -3 11 4 8 -1 9 -16 4 -17 -5 -21 -4 -16 6 4 8 0 5 -8 -5 -9 -11 -16
-15 -16 -8 0 6 -9 9 -20 7 -11 -2 -22 1 -25 6 -4 5 -10 7 -15 4 -18 -11 -78
-15 -101 -7 -17 7 -33 5 -53 -5 -16 -8 -31 -11 -35 -6 -3 4 -33 9 -66 10 -33
1 -89 3 -123 5 -35 2 -65 1 -67 -3 -2 -3 -29 -4 -60 -3 -30 1 -53 -2 -50 -6 3
-5 -7 -5 -22 -1 -16 4 -38 6 -50 5 -13 -1 -23 4 -23 10 0 6 -5 4 -10 -4 -5 -8
-10 -10 -10 -5 0 6 -5 3 -10 -5 -8 -13 -10 -12 -10 3 0 9 -4 17 -10 17 -5 0
-10 -4 -10 -10 0 -6 -9 -6 -25 0 -16 6 -27 6 -31 -2 -5 -7 -3 -8 6 -3 9 6 11
4 6 -4 -6 -9 -13 -8 -27 5 -10 9 -19 12 -19 7 0 -6 -18 -10 -40 -9 -22 0 -40
3 -40 6 0 3 -20 5 -45 5 -35 0 -44 -3 -40 -14 4 -10 -1 -9 -15 4 -19 17 -20
17 -20 0 0 -12 -4 -15 -12 -8 -19 14 -50 24 -44 14 3 -5 -3 -11 -14 -14 -11
-3 -18 -2 -15 3 3 4 -23 8 -58 7 -34 0 -71 3 -81 8 -14 6 -17 5 -12 -3 4 -7 2
-12 -3 -12 -6 0 -11 5 -11 11 0 7 -7 8 -17 4 -22 -9 -131 -10 -140 -1 -3 3
-12 1 -20 -5 -10 -9 -13 -8 -13 1 0 10 -3 10 -15 0 -9 -7 -22 -9 -32 -5 -32
14 -44 14 -50 -1 -3 -10 -9 -11 -17 -5 -6 5 -37 8 -68 6 -32 -1 -55 1 -52 6 8
13 -20 11 -34 -3 -9 -9 -13 -7 -18 6 -5 13 -9 14 -20 5 -8 -6 -20 -9 -28 -6
-11 4 -13 1 -9 -11 6 -15 4 -15 -15 1 -11 11 -26 16 -33 12 -20 -13 -149 -14
-142 -1 3 6 -2 3 -12 -6 -16 -15 -21 -15 -47 -2 -25 13 -28 13 -28 -3 0 -15
-1 -15 -13 2 -10 13 -16 15 -21 6 -6 -9 -11 -9 -21 -1 -10 8 -19 8 -35 -2 -17
-11 -22 -11 -30 2 -5 8 -10 10 -10 5 0 -6 -22 -10 -49 -10 -27 0 -47 3 -45 7
3 4 -2 5 -11 2 -8 -4 -22 0 -31 7 -12 10 -15 10 -12 -2z"/>
</g>
</svg>
